<svg xmlns="http://www.w3.org/2000/svg" xmlns:xlink="http://www.w3.org/1999/xlink" version="1.2" baseProfile="tiny" x="0px" y="0px" viewBox="0 0 100 125" xml:space="preserve"><g><path d="M52.5,35c0,8.271,6.729,15,15,15s15-6.729,15-15s-6.729-15-15-15S52.5,26.729,52.5,35z M77.5,35c0,5.514-4.486,10-10,10   s-10-4.486-10-10s4.486-10,10-10S77.5,29.486,77.5,35z"/><path d="M67.5,55c-6.705,0-12.777,1.455-17.5,3.904C45.277,56.455,39.205,55,32.5,55C17.079,55,5,62.687,5,72.5v5   C5,78.881,6.119,80,7.5,80h35h15h35c1.381,0,2.5-1.119,2.5-2.5v-5C95,62.687,82.921,55,67.5,55z M55,75H45H10v-2.5   C10,65.724,20.304,60,32.5,60S55,65.724,55,72.5V75z M90,75H60v-2.5c0-3.872-1.887-7.41-5.111-10.279   C58.513,60.827,62.869,60,67.5,60C79.696,60,90,65.724,90,72.5V75z"/><path d="M17.5,35c0,8.271,6.729,15,15,15s15-6.729,15-15s-6.729-15-15-15S17.5,26.729,17.5,35z M42.5,35c0,5.514-4.486,10-10,10   s-10-4.486-10-10s4.486-10,10-10S42.5,29.486,42.5,35z"/></g><text x="0" y="115" fill="#000000" font-size="5px" font-weight="bold" font-family="'Helvetica Neue', Helvetica, Arial-Unicode, Arial, Sans-serif">Created by Arthur Shlain</text><text x="0" y="120" fill="#000000" font-size="5px" font-weight="bold" font-family="'Helvetica Neue', Helvetica, Arial-Unicode, Arial, Sans-serif">from the Noun Project</text></svg>