<svg xmlns="http://www.w3.org/2000/svg" xmlns:xlink="http://www.w3.org/1999/xlink" version="1.2" baseProfile="tiny" x="0px" y="0px" viewBox="0 0 100 125" xml:space="preserve"><g><path d="M78.5292969,57.2353516c-6.0960693,0-11.4730835,3.1382446-14.6000977,7.8839722l-7.9960327-4.6120605   c0.2712402-0.7058716,0.4203491-1.4717407,0.4203491-2.2719116c0-3.1627197-2.3239136-5.7929077-5.3535156-6.2740479v-9.2252808   c9.1702881-0.5199585,16.4707031-8.1444092,16.4707031-17.4425659c0-9.6337891-7.8369141-17.4711914-17.4707031-17.4711914   S32.5292969,15.659668,32.5292969,25.293457c0,9.2981567,7.300415,16.9226074,16.4707031,17.4425659v9.2252808   c-3.0296021,0.4811401-5.3535156,3.1113281-5.3535156,6.2740479c0,0.8001709,0.1491089,1.56604,0.4203491,2.2719116   l-7.9960327,4.6120605c-3.1270142-4.7457275-8.5040283-7.8839722-14.6000977-7.8839722   C11.8369141,57.2353516,4,65.0727539,4,74.706543s7.8369141,17.4711914,17.4707031,17.4711914   S38.9423828,84.340332,38.9423828,74.706543c0-2.8239746-0.6737671-5.4934692-1.8685303-7.8565674l7.9959717-4.6119995   C46.2358398,63.6713867,48.0128174,64.5888672,50,64.5888672s3.7641602-0.9174805,4.9301758-2.3508911l7.9959717,4.6119995   c-1.1947632,2.3630981-1.8685303,5.0325928-1.8685303,7.8565674c0,9.6337891,7.8378906,17.4711914,17.4716797,17.4711914   S96,84.340332,96,74.706543S88.1630859,57.2353516,78.5292969,57.2353516z M21.4707031,90.1777344   c-3.317749,0-6.3948975-1.0501099-8.9168701-2.835144c1.0822144-3.9857788,4.7365723-6.817688,8.9168701-6.817688   c2.4667797,0,4.7871094,0.9614258,6.5332031,2.7075195c1.1522217,1.1535034,1.9689941,2.5640869,2.3853149,4.1095581   C27.8669434,89.1273804,24.7892456,90.1777344,21.4707031,90.1777344z M32.0576782,85.9782715   c-0.5540161-1.5526123-1.4500122-2.9694824-2.6397095-4.1599121c-2.1240234-2.1240234-4.9462891-3.293457-7.9472656-3.293457   c-4.7868652,0-9.0068359,3.0531006-10.5831299,7.4561768C7.8809204,83.1569214,6,79.1472778,6,74.706543   c0-8.5307617,6.9404297-15.4711914,15.4707031-15.4711914c8.53125,0,15.4716797,6.9404297,15.4716797,15.4711914   C36.9423828,79.145813,35.0627441,83.1542358,32.0576782,85.9782715z M34.5292969,25.293457   c0-8.5307617,6.9404297-15.4711914,15.4707031-15.4711914s15.4707031,6.9404297,15.4707031,15.4711914   c0,4.4390869-1.8794556,8.4473877-4.8841553,11.2713623c-0.5536499-1.5528564-1.4498291-2.9698486-2.6402588-4.1595459   C55.8222656,30.28125,53.0009766,29.1118164,50,29.1118164c-4.7869873,0-9.006958,3.0532227-10.583252,7.4561157   C36.4101563,33.7437744,34.5292969,29.7341919,34.5292969,25.293457z M41.0830078,37.9294434   C42.1650391,33.9435425,45.819519,31.1118164,50,31.1118164c2.4658203,0,4.7861328,0.9614258,6.5322266,2.7075195   c1.1532593,1.1532593,1.9702148,2.5637817,2.3858032,4.109375C56.395874,39.7142334,53.3182983,40.7646484,50,40.7646484   C46.6821899,40.7646484,43.6049805,39.7145386,41.0830078,37.9294434z M50,62.5888672   c-2.4003906,0-4.3535156-1.953125-4.3535156-4.3535156S47.5996094,53.8823242,50,53.8823242   s4.3535156,1.9526367,4.3535156,4.3530273S52.4003906,62.5888672,50,62.5888672z M78.5292969,90.1777344   c-3.3182373,0-6.3956909-1.0501709-8.9177856-2.8352661c1.0822754-3.9856567,4.7365723-6.8175659,8.9177856-6.8175659   c2.4658203,0,4.7861328,0.9614258,6.5322266,2.7075195c1.1530762,1.1543579,1.9699707,2.5650635,2.3856201,4.1094971   C84.9249878,89.1273804,81.8474731,90.1777344,78.5292969,90.1777344z M89.1154785,85.9782104   c-0.5537109-1.5518188-1.4497681-2.9686279-2.6398926-4.1598511c-2.1240234-2.1240234-4.9453125-3.293457-7.9462891-3.293457   c-4.7877197,0-9.0076904,3.0529785-10.5840454,7.4560547c-3.0067749-2.8241577-4.8876343-6.8337402-4.8876343-11.2744141   c0-8.5307617,6.9404297-15.4711914,15.4716797-15.4711914C87.0595703,59.2353516,94,66.1757813,94,74.706543   C94,79.145813,92.1204224,83.1541748,89.1154785,85.9782104z"/><path d="M78.5292969,64.7763672c-3.5957031,0-6.5205078,2.925293-6.5205078,6.5205078   s2.9248047,6.5205078,6.5205078,6.5205078s6.5205078-2.925293,6.5205078-6.5205078S82.125,64.7763672,78.5292969,64.7763672z    M78.5292969,75.8173828c-2.4921875,0-4.5205078-2.027832-4.5205078-4.5205078s2.0283203-4.5205078,4.5205078-4.5205078   s4.5205078,2.027832,4.5205078,4.5205078S81.0214844,75.8173828,78.5292969,75.8173828z"/><path d="M50,28.4042969c3.5957031,0,6.5205078-2.925293,6.5205078-6.5205078S53.5957031,15.3632813,50,15.3632813   s-6.5205078,2.925293-6.5205078,6.5205078S46.4042969,28.4042969,50,28.4042969z M50,17.3632813   c2.4921875,0,4.5205078,2.027832,4.5205078,4.5205078S52.4921875,26.4042969,50,26.4042969   s-4.5205078-2.027832-4.5205078-4.5205078S47.5078125,17.3632813,50,17.3632813z"/><path d="M21.4707031,64.7763672c-3.5957031,0-6.5205078,2.925293-6.5205078,6.5205078   s2.9248047,6.5205078,6.5205078,6.5205078s6.5205078-2.925293,6.5205078-6.5205078S25.0664063,64.7763672,21.4707031,64.7763672z    M21.4707031,75.8173828c-2.4921875,0-4.5205078-2.027832-4.5205078-4.5205078s2.0283203-4.5205078,4.5205078-4.5205078   s4.5205078,2.027832,4.5205078,4.5205078S23.9628906,75.8173828,21.4707031,75.8173828z"/></g><text x="0" y="115" fill="#000000" font-size="5px" font-weight="bold" font-family="'Helvetica Neue', Helvetica, Arial-Unicode, Arial, Sans-serif">Created by vlodimer</text><text x="0" y="120" fill="#000000" font-size="5px" font-weight="bold" font-family="'Helvetica Neue', Helvetica, Arial-Unicode, Arial, Sans-serif">from the Noun Project</text></svg>