<svg width="20" height="20" viewBox="0 0 20 20" fill="none" xmlns="http://www.w3.org/2000/svg">
<path d="M16.4584 1.66667H3.54175C2.50841 1.66667 1.66675 2.50834 1.66675 3.54167V16.4583C1.66675 17.4917 2.50841 18.3333 3.54175 18.3333H16.4584C17.4917 18.3333 18.3334 17.4917 18.3334 16.4583V3.54167C18.3334 2.50834 17.4917 1.66667 16.4584 1.66667ZM3.54175 2.91667H16.4584C16.8026 2.91667 17.0834 3.19751 17.0834 3.54167V11.605L13.8684 8.39001C13.7517 8.27334 13.5934 8.20667 13.4267 8.20667H13.4242C13.2576 8.20667 13.0967 8.27334 12.9809 8.39334L9.38342 12.0467L7.87258 10.5417C7.75591 10.425 7.59758 10.3583 7.43091 10.3583C7.27008 10.3333 7.10175 10.425 6.98508 10.5475L2.91675 14.7017V3.54167C2.91675 3.19751 3.19758 2.91667 3.54175 2.91667ZM2.92175 16.4833L7.43675 11.8717L12.6717 17.0833H3.54175C3.20675 17.0833 2.93591 16.815 2.92175 16.4833ZM16.4584 17.0833H14.4417L10.2692 12.9275L13.4292 9.71917L17.0834 13.3725V16.4583C17.0834 16.8025 16.8026 17.0833 16.4584 17.0833Z" fill="#1D9BF0"/>
<path d="M7.38998 8.20918C8.09967 8.20918 8.67498 7.63386 8.67498 6.92418C8.67498 6.21449 8.09967 5.63918 7.38998 5.63918C6.68029 5.63918 6.10498 6.21449 6.10498 6.92418C6.10498 7.63386 6.68029 8.20918 7.38998 8.20918Z" fill="#1D9BF0"/>
</svg>
