<svg width="20" height="20" viewBox="0 0 20 20" fill="none" xmlns="http://www.w3.org/2000/svg">
<path d="M16.8517 7.63334H15.7401C15.7526 7.55834 15.7634 7.48167 15.7634 7.40251V5.47501C15.7634 4.65834 15.0992 3.99417 14.2817 3.99417H2.91675V2.79834C2.91675 2.45334 2.63675 2.17334 2.29175 2.17334C1.94675 2.17334 1.66675 2.45334 1.66675 2.79834V17.3583C1.66675 17.7042 1.94675 17.9833 2.29175 17.9833C2.63675 17.9833 2.91675 17.7042 2.91675 17.3583V16.1633H11.7134C12.5301 16.1633 13.1951 15.4992 13.1951 14.6825V12.755C13.1951 12.6758 13.1834 12.5992 13.1717 12.5233H16.8526C17.6692 12.5233 18.3342 11.8583 18.3342 11.0417V9.11667C18.3342 8.29751 17.6701 7.63334 16.8526 7.63334H16.8517ZM14.2834 5.24417C14.4101 5.24417 14.5142 5.34751 14.5142 5.47501V7.40001C14.5142 7.52834 14.4101 7.63334 14.2826 7.63334H2.91675V5.24167H14.2834V5.24417ZM11.9442 12.7558V14.6825C11.9442 14.81 11.8401 14.9133 11.7126 14.9133H2.91675V12.5233H11.7134C11.8409 12.5233 11.9442 12.6283 11.9442 12.7567V12.7558ZM17.0834 11.0417C17.0834 11.1692 16.9792 11.2725 16.8517 11.2725H2.91675V8.88334H16.8517C16.9792 8.88334 17.0834 8.98667 17.0834 9.11417V11.0417Z" fill="#1D9BF0"/>
</svg>
